# xmcd
#
# Track frame offsets: 
#        150
#        12868
#        22796
#        37749
#        48594
#        58574
#        68262
#        80393
#        92567
#        102222
#        111175
#        122747
#        134319
#
# Disc length: 1968 seconds
#
# Revision: 0
# Processed by: cddbd v1.5.2PL0 Copyright (c) Steve Scherf et al.
# Submitted via: ExactAudioCopy v1.0b1
#
DISCID=9207ae0d
DTITLE=Patsy Cline - Patsy Cline Showcase
DYEAR=1965
DGENRE=Country
TTITLE0=I Fall To Pieces
TTITLE1=Foolin' Around
TTITLE2=The Wayward Wind
TTITLE3=South Of The Border (Down Mexico Way)
TTITLE4=I Love You So Much It Hurts
TTITLE5=Seven Lonely Days
TTITLE6=Crazy
TTITLE7=San Antonio Rose
TTITLE8=True Love
TTITLE9=Walin' After Midnight
TTITLE10=A Poor Man's Roses (Or A Rich Man's Gold)
TTITLE11=Have You Ever Been Lonely (Have You Ever Been Blue)
TTITLE12=I Can't Help It If I'm Still In Love With You
EXTD=
EXTT0=
EXTT1=
EXTT2=
EXTT3=
EXTT4=
EXTT5=
EXTT6=
EXTT7=
EXTT8=
EXTT9=
EXTT10=
EXTT11=
EXTT12=
PLAYORDER=
